<?xml version="1.0" standalone="no"?>
<!DOCTYPE svg PUBLIC "-//W3C//DTD SVG 1.1//EN" "http://www.w3.org/Graphics/SVG/1.1/DTD/svg11.dtd">
<svg version="1.1" width="1200" height="470" onload="init(evt)" viewBox="0 0 1200 470" xmlns="http://www.w3.org/2000/svg" xmlns:xlink="http://www.w3.org/1999/xlink">
<!-- Flame graph stack visualization. See https://github.com/brendangregg/FlameGraph for latest version, and http://www.brendangregg.com/flamegraphs.html for examples. -->
<!-- NOTES:  -->
<defs>
	<linearGradient id="background" y1="0" y2="1" x1="0" x2="0" >
		<stop stop-color="#eeeeee" offset="5%" />
		<stop stop-color="#eeeeb0" offset="95%" />
	</linearGradient>
</defs>
<style type="text/css">
	text { font-family:Verdana; font-size:12px; fill:rgb(0,0,0); }
	#search, #ignorecase { opacity:0.1; cursor:pointer; }
	#search:hover, #search.show, #ignorecase:hover, #ignorecase.show { opacity:1; }
	#subtitle { text-anchor:middle; font-color:rgb(160,160,160); }
	#title { text-anchor:middle; font-size:17px}
	#unzoom { cursor:pointer; }
	#frames > *:hover { stroke:black; stroke-width:0.5; cursor:pointer; }
	.hide { display:none; }
	.parent { opacity:0.5; }
</style>
<script type="text/ecmascript">
<![CDATA[
	"use strict";
	var details, searchbtn, unzoombtn, matchedtxt, svg, searching, currentSearchTerm, ignorecase, ignorecaseBtn;
	function init(evt) {
		details = document.getElementById("details").firstChild;
		searchbtn = document.getElementById("search");
		ignorecaseBtn = document.getElementById("ignorecase");
		unzoombtn = document.getElementById("unzoom");
		matchedtxt = document.getElementById("matched");
		svg = document.getElementsByTagName("svg")[0];
		searching = 0;
		currentSearchTerm = null;

		// use GET parameters to restore a flamegraphs state.
		var params = get_params();
		if (params.x && params.y)
			zoom(find_group(document.querySelector('[x="' + params.x + '"][y="' + params.y + '"]')));
                if (params.s) search(params.s);
	}

	// event listeners
	window.addEventListener("click", function(e) {
		var target = find_group(e.target);
		if (target) {
			if (target.nodeName == "a") {
				if (e.ctrlKey === false) return;
				e.preventDefault();
			}
			if (target.classList.contains("parent")) unzoom(true);
			zoom(target);
			if (!document.querySelector('.parent')) {
				// we have basically done a clearzoom so clear the url
				var params = get_params();
				if (params.x) delete params.x;
				if (params.y) delete params.y;
				history.replaceState(null, null, parse_params(params));
				unzoombtn.classList.add("hide");
				return;
			}

			// set parameters for zoom state
			var el = target.querySelector("rect");
			if (el && el.attributes && el.attributes.y && el.attributes._orig_x) {
				var params = get_params()
				params.x = el.attributes._orig_x.value;
				params.y = el.attributes.y.value;
				history.replaceState(null, null, parse_params(params));
			}
		}
		else if (e.target.id == "unzoom") clearzoom();
		else if (e.target.id == "search") search_prompt();
		else if (e.target.id == "ignorecase") toggle_ignorecase();
	}, false)

	// mouse-over for info
	// show
	window.addEventListener("mouseover", function(e) {
		var target = find_group(e.target);
		if (target) details.nodeValue = "Function: " + g_to_text(target);
	}, false)

	// clear
	window.addEventListener("mouseout", function(e) {
		var target = find_group(e.target);
		if (target) details.nodeValue = ' ';
	}, false)

	// ctrl-F for search
	// ctrl-I to toggle case-sensitive search
	window.addEventListener("keydown",function (e) {
		if (e.keyCode === 114 || (e.ctrlKey && e.keyCode === 70)) {
			e.preventDefault();
			search_prompt();
		}
		else if (e.ctrlKey && e.keyCode === 73) {
			e.preventDefault();
			toggle_ignorecase();
		}
	}, false)

	// functions
	function get_params() {
		var params = {};
		var paramsarr = window.location.search.substr(1).split('&');
		for (var i = 0; i < paramsarr.length; ++i) {
			var tmp = paramsarr[i].split("=");
			if (!tmp[0] || !tmp[1]) continue;
			params[tmp[0]]  = decodeURIComponent(tmp[1]);
		}
		return params;
	}
	function parse_params(params) {
		var uri = "?";
		for (var key in params) {
			uri += key + '=' + encodeURIComponent(params[key]) + '&';
		}
		if (uri.slice(-1) == "&")
			uri = uri.substring(0, uri.length - 1);
		if (uri == '?')
			uri = window.location.href.split('?')[0];
		return uri;
	}
	function find_child(node, selector) {
		var children = node.querySelectorAll(selector);
		if (children.length) return children[0];
	}
	function find_group(node) {
		var parent = node.parentElement;
		if (!parent) return;
		if (parent.id == "frames") return node;
		return find_group(parent);
	}
	function orig_save(e, attr, val) {
		if (e.attributes["_orig_" + attr] != undefined) return;
		if (e.attributes[attr] == undefined) return;
		if (val == undefined) val = e.attributes[attr].value;
		e.setAttribute("_orig_" + attr, val);
	}
	function orig_load(e, attr) {
		if (e.attributes["_orig_"+attr] == undefined) return;
		e.attributes[attr].value = e.attributes["_orig_" + attr].value;
		e.removeAttribute("_orig_"+attr);
	}
	function g_to_text(e) {
		var text = find_child(e, "title").firstChild.nodeValue;
		return (text)
	}
	function g_to_func(e) {
		var func = g_to_text(e);
		// if there's any manipulation we want to do to the function
		// name before it's searched, do it here before returning.
		return (func);
	}
	function update_text(e) {
		var r = find_child(e, "rect");
		var t = find_child(e, "text");
		var w = parseFloat(r.attributes.width.value) -3;
		var txt = find_child(e, "title").textContent.replace(/\([^(]*\)$/,"");
		t.attributes.x.value = parseFloat(r.attributes.x.value) + 3;

		// Smaller than this size won't fit anything
		if (w < 2 * 12 * 0.59) {
			t.textContent = "";
			return;
		}

		t.textContent = txt;
		var sl = t.getSubStringLength(0, txt.length);
		// check if only whitespace or if we can fit the entire string into width w
		if (/^ *$/.test(txt) || sl < w)
			return;

		// this isn't perfect, but gives a good starting point
		// and avoids calling getSubStringLength too often
		var start = Math.floor((w/sl) * txt.length);
		for (var x = start; x > 0; x = x-2) {
			if (t.getSubStringLength(0, x + 2) <= w) {
				t.textContent = txt.substring(0, x) + "..";
				return;
			}
		}
		t.textContent = "";
	}

	// zoom
	function zoom_reset(e) {
		if (e.attributes != undefined) {
			orig_load(e, "x");
			orig_load(e, "width");
		}
		if (e.childNodes == undefined) return;
		for (var i = 0, c = e.childNodes; i < c.length; i++) {
			zoom_reset(c[i]);
		}
	}
	function zoom_child(e, x, ratio) {
		if (e.attributes != undefined) {
			if (e.attributes.x != undefined) {
				orig_save(e, "x");
				e.attributes.x.value = (parseFloat(e.attributes.x.value) - x - 10) * ratio + 10;
				if (e.tagName == "text")
					e.attributes.x.value = find_child(e.parentNode, "rect[x]").attributes.x.value + 3;
			}
			if (e.attributes.width != undefined) {
				orig_save(e, "width");
				e.attributes.width.value = parseFloat(e.attributes.width.value) * ratio;
			}
		}

		if (e.childNodes == undefined) return;
		for (var i = 0, c = e.childNodes; i < c.length; i++) {
			zoom_child(c[i], x - 10, ratio);
		}
	}
	function zoom_parent(e) {
		if (e.attributes) {
			if (e.attributes.x != undefined) {
				orig_save(e, "x");
				e.attributes.x.value = 10;
			}
			if (e.attributes.width != undefined) {
				orig_save(e, "width");
				e.attributes.width.value = parseInt(svg.width.baseVal.value) - (10 * 2);
			}
		}
		if (e.childNodes == undefined) return;
		for (var i = 0, c = e.childNodes; i < c.length; i++) {
			zoom_parent(c[i]);
		}
	}
	function zoom(node) {
		var attr = find_child(node, "rect").attributes;
		var width = parseFloat(attr.width.value);
		var xmin = parseFloat(attr.x.value);
		var xmax = parseFloat(xmin + width);
		var ymin = parseFloat(attr.y.value);
		var ratio = (svg.width.baseVal.value - 2 * 10) / width;

		// XXX: Workaround for JavaScript float issues (fix me)
		var fudge = 0.0001;

		unzoombtn.classList.remove("hide");

		var el = document.getElementById("frames").children;
		for (var i = 0; i < el.length; i++) {
			var e = el[i];
			var a = find_child(e, "rect").attributes;
			var ex = parseFloat(a.x.value);
			var ew = parseFloat(a.width.value);
			var upstack;
			// Is it an ancestor
			if (0 == 0) {
				upstack = parseFloat(a.y.value) > ymin;
			} else {
				upstack = parseFloat(a.y.value) < ymin;
			}
			if (upstack) {
				// Direct ancestor
				if (ex <= xmin && (ex+ew+fudge) >= xmax) {
					e.classList.add("parent");
					zoom_parent(e);
					update_text(e);
				}
				// not in current path
				else
					e.classList.add("hide");
			}
			// Children maybe
			else {
				// no common path
				if (ex < xmin || ex + fudge >= xmax) {
					e.classList.add("hide");
				}
				else {
					zoom_child(e, xmin, ratio);
					update_text(e);
				}
			}
		}
		search();
	}
	function unzoom(dont_update_text) {
		unzoombtn.classList.add("hide");
		var el = document.getElementById("frames").children;
		for(var i = 0; i < el.length; i++) {
			el[i].classList.remove("parent");
			el[i].classList.remove("hide");
			zoom_reset(el[i]);
			if(!dont_update_text) update_text(el[i]);
		}
		search();
	}
	function clearzoom() {
		unzoom();

		// remove zoom state
		var params = get_params();
		if (params.x) delete params.x;
		if (params.y) delete params.y;
		history.replaceState(null, null, parse_params(params));
	}

	// search
	function toggle_ignorecase() {
		ignorecase = !ignorecase;
		if (ignorecase) {
			ignorecaseBtn.classList.add("show");
		} else {
			ignorecaseBtn.classList.remove("show");
		}
		reset_search();
		search();
	}
	function reset_search() {
		var el = document.querySelectorAll("#frames rect");
		for (var i = 0; i < el.length; i++) {
			orig_load(el[i], "fill")
		}
		var params = get_params();
		delete params.s;
		history.replaceState(null, null, parse_params(params));
	}
	function search_prompt() {
		if (!searching) {
			var term = prompt("Enter a search term (regexp " +
			    "allowed, eg: ^ext4_)"
			    + (ignorecase ? ", ignoring case" : "")
			    + "\nPress Ctrl-i to toggle case sensitivity", "");
			if (term != null) search(term);
		} else {
			reset_search();
			searching = 0;
			currentSearchTerm = null;
			searchbtn.classList.remove("show");
			searchbtn.firstChild.nodeValue = "Search"
			matchedtxt.classList.add("hide");
			matchedtxt.firstChild.nodeValue = ""
		}
	}
	function search(term) {
		if (term) currentSearchTerm = term;
		if (currentSearchTerm === null) return;

		var re = new RegExp(currentSearchTerm, ignorecase ? 'i' : '');
		var el = document.getElementById("frames").children;
		var matches = new Object();
		var maxwidth = 0;
		for (var i = 0; i < el.length; i++) {
			var e = el[i];
			var func = g_to_func(e);
			var rect = find_child(e, "rect");
			if (func == null || rect == null)
				continue;

			// Save max width. Only works as we have a root frame
			var w = parseFloat(rect.attributes.width.value);
			if (w > maxwidth)
				maxwidth = w;

			if (func.match(re)) {
				// highlight
				var x = parseFloat(rect.attributes.x.value);
				orig_save(rect, "fill");
				rect.attributes.fill.value = "rgb(230,0,230)";

				// remember matches
				if (matches[x] == undefined) {
					matches[x] = w;
				} else {
					if (w > matches[x]) {
						// overwrite with parent
						matches[x] = w;
					}
				}
				searching = 1;
			}
		}
		if (!searching)
			return;
		var params = get_params();
		params.s = currentSearchTerm;
		history.replaceState(null, null, parse_params(params));

		searchbtn.classList.add("show");
		searchbtn.firstChild.nodeValue = "Reset Search";

		// calculate percent matched, excluding vertical overlap
		var count = 0;
		var lastx = -1;
		var lastw = 0;
		var keys = Array();
		for (k in matches) {
			if (matches.hasOwnProperty(k))
				keys.push(k);
		}
		// sort the matched frames by their x location
		// ascending, then width descending
		keys.sort(function(a, b){
			return a - b;
		});
		// Step through frames saving only the biggest bottom-up frames
		// thanks to the sort order. This relies on the tree property
		// where children are always smaller than their parents.
		var fudge = 0.0001;	// JavaScript floating point
		for (var k in keys) {
			var x = parseFloat(keys[k]);
			var w = matches[keys[k]];
			if (x >= lastx + lastw - fudge) {
				count += w;
				lastx = x;
				lastw = w;
			}
		}
		// display matched percent
		matchedtxt.classList.remove("hide");
		var pct = 100 * count / maxwidth;
		if (pct != 100) pct = pct.toFixed(1)
		matchedtxt.firstChild.nodeValue = "Matched: " + pct + "%";
	}
]]>
</script>
<rect x="0.0" y="0" width="1200.0" height="470.0" fill="url(#background)"  />
<text id="title" x="600.00" y="24" >Flame Graph</text>
<text id="details" x="10.00" y="453" > </text>
<text id="unzoom" x="10.00" y="24" class="hide">Reset Zoom</text>
<text id="search" x="1090.00" y="24" >Search</text>
<text id="ignorecase" x="1174.00" y="24" >ic</text>
<text id="matched" x="1090.00" y="453" > </text>
<g id="frames">
<g >
<title>do_vmi_munmap (1,088,299 samples, 0.01%)</title><rect x="10.0" y="101" width="0.2" height="15.0" fill="rgb(253,223,53)" rx="2" ry="2" />
<text  x="13.01" y="111.5" ></text>
</g>
<g >
<title>tick_nohz_highres_handler (2,157,171 samples, 0.03%)</title><rect x="1186.8" y="213" width="0.3" height="15.0" fill="rgb(215,50,11)" rx="2" ry="2" />
<text  x="1189.78" y="223.5" ></text>
</g>
<g >
<title>sched_clock_cpu (2,151,912 samples, 0.03%)</title><rect x="851.9" y="117" width="0.4" height="15.0" fill="rgb(229,113,27)" rx="2" ry="2" />
<text  x="854.93" y="127.5" ></text>
</g>
<g >
<title>binSearch (7,384,413,695 samples, 100.00%)</title><rect x="10.0" y="405" width="1180.0" height="15.0" fill="rgb(228,108,25)" rx="2" ry="2" />
<text  x="13.00" y="415.5" >binSearch</text>
</g>
<g >
<title>asm_sysvec_apic_timer_interrupt (14,994,625 samples, 0.20%)</title><rect x="850.2" y="293" width="2.4" height="15.0" fill="rgb(232,127,30)" rx="2" ry="2" />
<text  x="853.22" y="303.5" ></text>
</g>
<g >
<title>task_tick_fair (6,421,898 samples, 0.09%)</title><rect x="851.2" y="149" width="1.1" height="15.0" fill="rgb(217,57,13)" rx="2" ry="2" />
<text  x="854.25" y="159.5" ></text>
</g>
<g >
<title>rcu_core_si (2,130,463 samples, 0.03%)</title><rect x="852.3" y="213" width="0.3" height="15.0" fill="rgb(237,150,36)" rx="2" ry="2" />
<text  x="855.27" y="223.5" ></text>
</g>
<g >
<title>ksys_mmap_pgoff (1,088,299 samples, 0.01%)</title><rect x="10.0" y="165" width="0.2" height="15.0" fill="rgb(245,185,44)" rx="2" ry="2" />
<text  x="13.01" y="175.5" ></text>
</g>
<g >
<title>_dl_sysdep_start (1,088,299 samples, 0.01%)</title><rect x="10.0" y="357" width="0.2" height="15.0" fill="rgb(234,137,32)" rx="2" ry="2" />
<text  x="13.01" y="367.5" ></text>
</g>
<g >
<title>__note_gp_changes (2,130,463 samples, 0.03%)</title><rect x="852.3" y="165" width="0.3" height="15.0" fill="rgb(231,120,28)" rx="2" ry="2" />
<text  x="855.27" y="175.5" ></text>
</g>
<g >
<title>asm_sysvec_reschedule_ipi (2,042,212 samples, 0.03%)</title><rect x="852.6" y="293" width="0.3" height="15.0" fill="rgb(249,205,49)" rx="2" ry="2" />
<text  x="855.62" y="303.5" ></text>
</g>
<g >
<title>_dl_start (1,088,299 samples, 0.01%)</title><rect x="10.0" y="373" width="0.2" height="15.0" fill="rgb(237,151,36)" rx="2" ry="2" />
<text  x="13.01" y="383.5" ></text>
</g>
<g >
<title>timekeeping_advance (2,157,171 samples, 0.03%)</title><rect x="1186.8" y="149" width="0.3" height="15.0" fill="rgb(227,104,25)" rx="2" ry="2" />
<text  x="1189.78" y="159.5" ></text>
</g>
<g >
<title>asm_sysvec_apic_timer_interrupt (4,320,654 samples, 0.06%)</title><rect x="1039.5" y="277" width="0.7" height="15.0" fill="rgb(232,127,30)" rx="2" ry="2" />
<text  x="1042.50" y="287.5" ></text>
</g>
<g >
<title>mmap64 (1,088,299 samples, 0.01%)</title><rect x="10.0" y="245" width="0.2" height="15.0" fill="rgb(220,70,16)" rx="2" ry="2" />
<text  x="13.01" y="255.5" ></text>
</g>
<g >
<title>rb_next (2,146,382 samples, 0.03%)</title><rect x="850.2" y="197" width="0.4" height="15.0" fill="rgb(242,173,41)" rx="2" ry="2" />
<text  x="853.22" y="207.5" ></text>
</g>
<g >
<title>int* std::__uninitialized_default_n_1&lt;true&gt;::__uninit_default_n&lt;int*, unsigned long&gt; (9,389,640 samples, 0.13%)</title><rect x="1188.5" y="245" width="1.5" height="15.0" fill="rgb(212,35,8)" rx="2" ry="2" />
<text  x="1191.50" y="255.5" ></text>
</g>
<g >
<title>rcu_core (2,130,463 samples, 0.03%)</title><rect x="852.3" y="197" width="0.3" height="15.0" fill="rgb(222,81,19)" rx="2" ry="2" />
<text  x="855.27" y="207.5" ></text>
</g>
<g >
<title>ctx_groups_sched_in (2,026,114 samples, 0.03%)</title><rect x="852.6" y="149" width="0.3" height="15.0" fill="rgb(225,95,22)" rx="2" ry="2" />
<text  x="855.62" y="159.5" ></text>
</g>
<g >
<title>scheduler_tick (2,151,894 samples, 0.03%)</title><rect x="850.6" y="181" width="0.3" height="15.0" fill="rgb(246,190,45)" rx="2" ry="2" />
<text  x="853.56" y="191.5" ></text>
</g>
<g >
<title>__gnu_cxx::__enable_if&lt;std::__is_scalar&lt;int&gt;::__value, void&gt;::__type std::__fill_a1&lt;int*, int&gt; (9,389,640 samples, 0.13%)</title><rect x="1188.5" y="181" width="1.5" height="15.0" fill="rgb(228,109,26)" rx="2" ry="2" />
<text  x="1191.50" y="191.5" ></text>
</g>
<g >
<title>sysvec_apic_timer_interrupt (14,994,625 samples, 0.20%)</title><rect x="850.2" y="277" width="2.4" height="15.0" fill="rgb(220,69,16)" rx="2" ry="2" />
<text  x="853.22" y="287.5" ></text>
</g>
<g >
<title>int* std::__uninitialized_default_n_a&lt;int*, unsigned long, int&gt; (9,389,640 samples, 0.13%)</title><rect x="1188.5" y="277" width="1.5" height="15.0" fill="rgb(239,160,38)" rx="2" ry="2" />
<text  x="1191.50" y="287.5" ></text>
</g>
<g >
<title>tick_sched_handle (2,158,026 samples, 0.03%)</title><rect x="1039.5" y="181" width="0.3" height="15.0" fill="rgb(219,68,16)" rx="2" ry="2" />
<text  x="1042.50" y="191.5" ></text>
</g>
<g >
<title>finish_task_switch.isra.0 (2,026,114 samples, 0.03%)</title><rect x="852.6" y="197" width="0.3" height="15.0" fill="rgb(246,189,45)" rx="2" ry="2" />
<text  x="855.62" y="207.5" ></text>
</g>
<g >
<title>do_syscall_64 (1,088,299 samples, 0.01%)</title><rect x="10.0" y="213" width="0.2" height="15.0" fill="rgb(209,20,4)" rx="2" ry="2" />
<text  x="13.01" y="223.5" ></text>
</g>
<g >
<title>asm_common_interrupt (2,141,151 samples, 0.03%)</title><rect x="849.9" y="293" width="0.3" height="15.0" fill="rgb(227,105,25)" rx="2" ry="2" />
<text  x="852.88" y="303.5" ></text>
</g>
<g >
<title>_dl_start_user (1,088,299 samples, 0.01%)</title><rect x="10.0" y="389" width="0.2" height="15.0" fill="rgb(236,145,34)" rx="2" ry="2" />
<text  x="13.01" y="399.5" ></text>
</g>
<g >
<title>__x64_sys_mmap (1,088,299 samples, 0.01%)</title><rect x="10.0" y="181" width="0.2" height="15.0" fill="rgb(223,83,19)" rx="2" ry="2" />
<text  x="13.01" y="191.5" ></text>
</g>
<g >
<title>int* std::__fill_n_a&lt;int*, unsigned long, int&gt; (9,389,640 samples, 0.13%)</title><rect x="1188.5" y="213" width="1.5" height="15.0" fill="rgb(208,14,3)" rx="2" ry="2" />
<text  x="1191.50" y="223.5" ></text>
</g>
<g >
<title>entry_SYSCALL_64_after_hwframe (1,088,299 samples, 0.01%)</title><rect x="10.0" y="229" width="0.2" height="15.0" fill="rgb(218,63,15)" rx="2" ry="2" />
<text  x="13.01" y="239.5" ></text>
</g>
<g >
<title>amd_gpio_irq_handler (2,141,151 samples, 0.03%)</title><rect x="849.9" y="197" width="0.3" height="15.0" fill="rgb(225,93,22)" rx="2" ry="2" />
<text  x="852.88" y="207.5" ></text>
</g>
<g >
<title>common_interrupt (2,141,151 samples, 0.03%)</title><rect x="849.9" y="277" width="0.3" height="15.0" fill="rgb(215,46,11)" rx="2" ry="2" />
<text  x="852.88" y="287.5" ></text>
</g>
<g >
<title>rcu_pending (2,158,026 samples, 0.03%)</title><rect x="1039.5" y="133" width="0.3" height="15.0" fill="rgb(231,121,28)" rx="2" ry="2" />
<text  x="1042.50" y="143.5" ></text>
</g>
<g >
<title>all (7,384,417,385 samples, 100%)</title><rect x="10.0" y="421" width="1180.0" height="15.0" fill="rgb(213,39,9)" rx="2" ry="2" />
<text  x="13.00" y="431.5" ></text>
</g>
<g >
<title>irqentry_enter (2,161,336 samples, 0.03%)</title><rect x="1039.8" y="245" width="0.4" height="15.0" fill="rgb(223,84,20)" rx="2" ry="2" />
<text  x="1042.84" y="255.5" ></text>
</g>
<g >
<title>binary_search (23,666,236 samples, 0.32%)</title><rect x="10.2" y="325" width="3.8" height="15.0" fill="rgb(213,39,9)" rx="2" ry="2" />
<text  x="13.18" y="335.5" ></text>
</g>
<g >
<title>__irq_exit_rcu (2,130,463 samples, 0.03%)</title><rect x="852.3" y="245" width="0.3" height="15.0" fill="rgb(227,101,24)" rx="2" ry="2" />
<text  x="855.27" y="255.5" ></text>
</g>
<g >
<title>irqentry_exit_to_user_mode (2,038,265 samples, 0.03%)</title><rect x="852.6" y="245" width="0.3" height="15.0" fill="rgb(254,229,54)" rx="2" ry="2" />
<text  x="855.62" y="255.5" ></text>
</g>
<g >
<title>_dl_map_object_from_fd (1,088,299 samples, 0.01%)</title><rect x="10.0" y="261" width="0.2" height="15.0" fill="rgb(249,205,49)" rx="2" ry="2" />
<text  x="13.01" y="271.5" ></text>
</g>
<g >
<title>update_load_avg (2,151,912 samples, 0.03%)</title><rect x="851.9" y="133" width="0.4" height="15.0" fill="rgb(240,165,39)" rx="2" ry="2" />
<text  x="854.93" y="143.5" ></text>
</g>
<g >
<title>__schedule (2,034,008 samples, 0.03%)</title><rect x="852.6" y="213" width="0.3" height="15.0" fill="rgb(227,103,24)" rx="2" ry="2" />
<text  x="855.62" y="223.5" ></text>
</g>
<g >
<title>reweight_entity (2,155,486 samples, 0.03%)</title><rect x="851.2" y="117" width="0.4" height="15.0" fill="rgb(253,222,53)" rx="2" ry="2" />
<text  x="854.25" y="127.5" ></text>
</g>
<g >
<title>sysvec_apic_timer_interrupt (2,157,171 samples, 0.03%)</title><rect x="1186.8" y="277" width="0.3" height="15.0" fill="rgb(220,69,16)" rx="2" ry="2" />
<text  x="1189.78" y="287.5" ></text>
</g>
<g >
<title>std::vector&lt;int, std::allocator&lt;int&gt; &gt;::size (8,623,313 samples, 0.12%)</title><rect x="1187.1" y="309" width="1.4" height="15.0" fill="rgb(211,32,7)" rx="2" ry="2" />
<text  x="1190.12" y="319.5" ></text>
</g>
<g >
<title>tick_sched_handle (10,717,780 samples, 0.15%)</title><rect x="850.6" y="197" width="1.7" height="15.0" fill="rgb(219,68,16)" rx="2" ry="2" />
<text  x="853.56" y="207.5" ></text>
</g>
<g >
<title>__libc_start_call_main (7,383,262,151 samples, 99.98%)</title><rect x="10.2" y="357" width="1179.8" height="15.0" fill="rgb(210,26,6)" rx="2" ry="2" />
<text  x="13.18" y="367.5" >__libc_start_call_main</text>
</g>
<g >
<title>sysvec_apic_timer_interrupt (4,320,654 samples, 0.06%)</title><rect x="1039.5" y="261" width="0.7" height="15.0" fill="rgb(220,69,16)" rx="2" ry="2" />
<text  x="1042.50" y="271.5" ></text>
</g>
<g >
<title>std::vector&lt;int, std::allocator&lt;int&gt; &gt;::vector (9,389,640 samples, 0.13%)</title><rect x="1188.5" y="309" width="1.5" height="15.0" fill="rgb(216,53,12)" rx="2" ry="2" />
<text  x="1191.50" y="319.5" ></text>
</g>
<g >
<title>__sysvec_apic_timer_interrupt (12,864,162 samples, 0.17%)</title><rect x="850.2" y="261" width="2.1" height="15.0" fill="rgb(242,173,41)" rx="2" ry="2" />
<text  x="853.22" y="271.5" ></text>
</g>
<g >
<title>mas_store_gfp (1,088,299 samples, 0.01%)</title><rect x="10.0" y="69" width="0.2" height="15.0" fill="rgb(216,53,12)" rx="2" ry="2" />
<text  x="13.01" y="79.5" ></text>
</g>
<g >
<title>update_wall_time (2,157,171 samples, 0.03%)</title><rect x="1186.8" y="165" width="0.3" height="15.0" fill="rgb(207,11,2)" rx="2" ry="2" />
<text  x="1189.78" y="175.5" ></text>
</g>
<g >
<title>__sysvec_apic_timer_interrupt (2,157,171 samples, 0.03%)</title><rect x="1186.8" y="261" width="0.3" height="15.0" fill="rgb(242,173,41)" rx="2" ry="2" />
<text  x="1189.78" y="271.5" ></text>
</g>
<g >
<title>mas_wr_store_entry.isra.0 (1,088,299 samples, 0.01%)</title><rect x="10.0" y="53" width="0.2" height="15.0" fill="rgb(226,98,23)" rx="2" ry="2" />
<text  x="13.01" y="63.5" ></text>
</g>
<g >
<title>int* std::fill_n&lt;int*, unsigned long, int&gt; (9,389,640 samples, 0.13%)</title><rect x="1188.5" y="229" width="1.5" height="15.0" fill="rgb(225,95,22)" rx="2" ry="2" />
<text  x="1191.50" y="239.5" ></text>
</g>
<g >
<title>__hrtimer_run_queues (2,157,171 samples, 0.03%)</title><rect x="1186.8" y="229" width="0.3" height="15.0" fill="rgb(237,150,35)" rx="2" ry="2" />
<text  x="1189.78" y="239.5" ></text>
</g>
<g >
<title>_dl_map_object_deps (1,088,299 samples, 0.01%)</title><rect x="10.0" y="325" width="0.2" height="15.0" fill="rgb(219,68,16)" rx="2" ry="2" />
<text  x="13.01" y="335.5" ></text>
</g>
<g >
<title>__common_interrupt (2,141,151 samples, 0.03%)</title><rect x="849.9" y="261" width="0.3" height="15.0" fill="rgb(237,150,36)" rx="2" ry="2" />
<text  x="852.88" y="271.5" ></text>
</g>
<g >
<title>run_binary_search (7,359,595,915 samples, 99.66%)</title><rect x="14.0" y="325" width="1176.0" height="15.0" fill="rgb(246,193,46)" rx="2" ry="2" />
<text  x="16.97" y="335.5" >run_binary_search</text>
</g>
<g >
<title>sysvec_reschedule_ipi (2,042,212 samples, 0.03%)</title><rect x="852.6" y="277" width="0.3" height="15.0" fill="rgb(236,146,35)" rx="2" ry="2" />
<text  x="855.62" y="287.5" ></text>
</g>
<g >
<title>openaux (1,088,299 samples, 0.01%)</title><rect x="10.0" y="293" width="0.2" height="15.0" fill="rgb(252,217,52)" rx="2" ry="2" />
<text  x="13.01" y="303.5" ></text>
</g>
<g >
<title>update_curr (2,114,500 samples, 0.03%)</title><rect x="851.6" y="133" width="0.3" height="15.0" fill="rgb(227,105,25)" rx="2" ry="2" />
<text  x="854.59" y="143.5" ></text>
</g>
<g >
<title>mmap_region (1,088,299 samples, 0.01%)</title><rect x="10.0" y="117" width="0.2" height="15.0" fill="rgb(231,121,28)" rx="2" ry="2" />
<text  x="13.01" y="127.5" ></text>
</g>
<g >
<title>void std::__fill_a&lt;int*, int&gt; (9,389,640 samples, 0.13%)</title><rect x="1188.5" y="197" width="1.5" height="15.0" fill="rgb(238,154,37)" rx="2" ry="2" />
<text  x="1191.50" y="207.5" ></text>
</g>
<g >
<title>tick_do_update_jiffies64 (2,157,171 samples, 0.03%)</title><rect x="1186.8" y="181" width="0.3" height="15.0" fill="rgb(208,14,3)" rx="2" ry="2" />
<text  x="1189.78" y="191.5" ></text>
</g>
<g >
<title>binary_search (6,420,316,296 samples, 86.94%)</title><rect x="20.6" y="309" width="1026.0" height="15.0" fill="rgb(213,39,9)" rx="2" ry="2" />
<text  x="23.65" y="319.5" >binary_search</text>
</g>
<g >
<title>irqentry_exit (2,042,212 samples, 0.03%)</title><rect x="852.6" y="261" width="0.3" height="15.0" fill="rgb(219,66,15)" rx="2" ry="2" />
<text  x="855.62" y="271.5" ></text>
</g>
<g >
<title>update_process_times (2,158,026 samples, 0.03%)</title><rect x="1039.5" y="165" width="0.3" height="15.0" fill="rgb(250,209,50)" rx="2" ry="2" />
<text  x="1042.50" y="175.5" ></text>
</g>
<g >
<title>update_process_times (8,565,886 samples, 0.12%)</title><rect x="850.9" y="181" width="1.4" height="15.0" fill="rgb(250,209,50)" rx="2" ry="2" />
<text  x="853.91" y="191.5" ></text>
</g>
<g >
<title>do_amd_gpio_irq_handler (2,141,151 samples, 0.03%)</title><rect x="849.9" y="181" width="0.3" height="15.0" fill="rgb(248,200,47)" rx="2" ry="2" />
<text  x="852.88" y="191.5" ></text>
</g>
<g >
<title>rcu_segcblist_ready_cbs (2,158,026 samples, 0.03%)</title><rect x="1039.5" y="117" width="0.3" height="15.0" fill="rgb(230,117,28)" rx="2" ry="2" />
<text  x="1042.50" y="127.5" ></text>
</g>
<g >
<title>__hrtimer_run_queues (12,864,162 samples, 0.17%)</title><rect x="850.2" y="229" width="2.1" height="15.0" fill="rgb(237,150,35)" rx="2" ry="2" />
<text  x="853.22" y="239.5" ></text>
</g>
<g >
<title>dl_main (1,088,299 samples, 0.01%)</title><rect x="10.0" y="341" width="0.2" height="15.0" fill="rgb(236,145,34)" rx="2" ry="2" />
<text  x="13.01" y="351.5" ></text>
</g>
<g >
<title>handle_fasteoi_irq (2,141,151 samples, 0.03%)</title><rect x="849.9" y="245" width="0.3" height="15.0" fill="rgb(210,26,6)" rx="2" ry="2" />
<text  x="852.88" y="255.5" ></text>
</g>
<g >
<title>visit_groups_merge.constprop.0.isra.0 (2,026,114 samples, 0.03%)</title><rect x="852.6" y="133" width="0.3" height="15.0" fill="rgb(220,70,16)" rx="2" ry="2" />
<text  x="855.62" y="143.5" ></text>
</g>
<g >
<title>handle_irq_event (2,141,151 samples, 0.03%)</title><rect x="849.9" y="229" width="0.3" height="15.0" fill="rgb(209,19,4)" rx="2" ry="2" />
<text  x="852.88" y="239.5" ></text>
</g>
<g >
<title>main (7,383,262,151 samples, 99.98%)</title><rect x="10.2" y="341" width="1179.8" height="15.0" fill="rgb(243,179,42)" rx="2" ry="2" />
<text  x="13.18" y="351.5" >main</text>
</g>
<g >
<title>__hrtimer_run_queues (2,158,026 samples, 0.03%)</title><rect x="1039.5" y="213" width="0.3" height="15.0" fill="rgb(237,150,35)" rx="2" ry="2" />
<text  x="1042.50" y="223.5" ></text>
</g>
<g >
<title>std::vector&lt;int, std::allocator&lt;int&gt; &gt;::size (40,036,901 samples, 0.54%)</title><rect x="1040.2" y="293" width="6.4" height="15.0" fill="rgb(211,32,7)" rx="2" ry="2" />
<text  x="1043.19" y="303.5" ></text>
</g>
<g >
<title>std::vector&lt;int, std::allocator&lt;int&gt; &gt;::_M_default_initialize (9,389,640 samples, 0.13%)</title><rect x="1188.5" y="293" width="1.5" height="15.0" fill="rgb(210,25,6)" rx="2" ry="2" />
<text  x="1191.50" y="303.5" ></text>
</g>
<g >
<title>asm_sysvec_apic_timer_interrupt (2,157,171 samples, 0.03%)</title><rect x="1186.8" y="293" width="0.3" height="15.0" fill="rgb(232,127,30)" rx="2" ry="2" />
<text  x="1189.78" y="303.5" ></text>
</g>
<g >
<title>std::vector&lt;int, std::allocator&lt;int&gt; &gt;::operator[] (879,451,252 samples, 11.91%)</title><rect x="1046.6" y="309" width="140.5" height="15.0" fill="rgb(226,97,23)" rx="2" ry="2" />
<text  x="1049.59" y="319.5" >std::vector&lt;int, ..</text>
</g>
<g >
<title>rcu_sched_clock_irq (2,143,988 samples, 0.03%)</title><rect x="850.9" y="165" width="0.3" height="15.0" fill="rgb(208,15,3)" rx="2" ry="2" />
<text  x="853.91" y="175.5" ></text>
</g>
<g >
<title>scheduler_tick (6,421,898 samples, 0.09%)</title><rect x="851.2" y="165" width="1.1" height="15.0" fill="rgb(246,190,45)" rx="2" ry="2" />
<text  x="854.25" y="175.5" ></text>
</g>
<g >
<title>rcu_sched_clock_irq (2,158,026 samples, 0.03%)</title><rect x="1039.5" y="149" width="0.3" height="15.0" fill="rgb(208,15,3)" rx="2" ry="2" />
<text  x="1042.50" y="159.5" ></text>
</g>
<g >
<title>tick_nohz_highres_handler (2,158,026 samples, 0.03%)</title><rect x="1039.5" y="197" width="0.3" height="15.0" fill="rgb(215,50,11)" rx="2" ry="2" />
<text  x="1042.50" y="207.5" ></text>
</g>
<g >
<title>_dl_catch_exception (1,088,299 samples, 0.01%)</title><rect x="10.0" y="309" width="0.2" height="15.0" fill="rgb(253,223,53)" rx="2" ry="2" />
<text  x="13.01" y="319.5" ></text>
</g>
<g >
<title>note_gp_changes (2,130,463 samples, 0.03%)</title><rect x="852.3" y="181" width="0.3" height="15.0" fill="rgb(208,16,3)" rx="2" ry="2" />
<text  x="855.27" y="191.5" ></text>
</g>
<g >
<title>__perf_event_task_sched_in (2,026,114 samples, 0.03%)</title><rect x="852.6" y="181" width="0.3" height="15.0" fill="rgb(231,121,29)" rx="2" ry="2" />
<text  x="855.62" y="191.5" ></text>
</g>
<g >
<title>x64_sys_call (1,088,299 samples, 0.01%)</title><rect x="10.0" y="197" width="0.2" height="15.0" fill="rgb(247,194,46)" rx="2" ry="2" />
<text  x="13.01" y="207.5" ></text>
</g>
<g >
<title>int* std::__uninitialized_default_n&lt;int*, unsigned long&gt; (9,389,640 samples, 0.13%)</title><rect x="1188.5" y="261" width="1.5" height="15.0" fill="rgb(209,20,4)" rx="2" ry="2" />
<text  x="1191.50" y="271.5" ></text>
</g>
<g >
<title>perf_event_groups_next (2,022,035 samples, 0.03%)</title><rect x="852.6" y="117" width="0.3" height="15.0" fill="rgb(245,186,44)" rx="2" ry="2" />
<text  x="855.62" y="127.5" ></text>
</g>
<g >
<title>irq_exit_rcu (2,130,463 samples, 0.03%)</title><rect x="852.3" y="261" width="0.3" height="15.0" fill="rgb(254,227,54)" rx="2" ry="2" />
<text  x="855.27" y="271.5" ></text>
</g>
<g >
<title>mas_wr_walk_index.isra.0 (1,088,299 samples, 0.01%)</title><rect x="10.0" y="37" width="0.2" height="15.0" fill="rgb(208,15,3)" rx="2" ry="2" />
<text  x="13.01" y="47.5" ></text>
</g>
<g >
<title>do_vmi_align_munmap (1,088,299 samples, 0.01%)</title><rect x="10.0" y="85" width="0.2" height="15.0" fill="rgb(211,29,7)" rx="2" ry="2" />
<text  x="13.01" y="95.5" ></text>
</g>
<g >
<title>hrtimer_interrupt (2,157,171 samples, 0.03%)</title><rect x="1186.8" y="245" width="0.3" height="15.0" fill="rgb(228,109,26)" rx="2" ry="2" />
<text  x="1189.78" y="255.5" ></text>
</g>
<g >
<title>ctx_sched_in (2,026,114 samples, 0.03%)</title><rect x="852.6" y="165" width="0.3" height="15.0" fill="rgb(230,117,28)" rx="2" ry="2" />
<text  x="855.62" y="175.5" ></text>
</g>
<g >
<title>__remove_hrtimer (2,146,382 samples, 0.03%)</title><rect x="850.2" y="213" width="0.4" height="15.0" fill="rgb(218,63,15)" rx="2" ry="2" />
<text  x="853.22" y="223.5" ></text>
</g>
<g >
<title>__sysvec_apic_timer_interrupt (2,158,026 samples, 0.03%)</title><rect x="1039.5" y="245" width="0.3" height="15.0" fill="rgb(242,173,41)" rx="2" ry="2" />
<text  x="1042.50" y="255.5" ></text>
</g>
<g >
<title>__libc_start_main@@GLIBC_2.34 (7,383,262,151 samples, 99.98%)</title><rect x="10.2" y="373" width="1179.8" height="15.0" fill="rgb(229,113,27)" rx="2" ry="2" />
<text  x="13.18" y="383.5" >__libc_start_main@@GLIBC_2.34</text>
</g>
<g >
<title>_dl_map_object (1,088,299 samples, 0.01%)</title><rect x="10.0" y="277" width="0.2" height="15.0" fill="rgb(248,199,47)" rx="2" ry="2" />
<text  x="13.01" y="287.5" ></text>
</g>
<g >
<title>hrtimer_interrupt (12,864,162 samples, 0.17%)</title><rect x="850.2" y="245" width="2.1" height="15.0" fill="rgb(228,109,26)" rx="2" ry="2" />
<text  x="853.22" y="255.5" ></text>
</g>
<g >
<title>do_mmap (1,088,299 samples, 0.01%)</title><rect x="10.0" y="133" width="0.2" height="15.0" fill="rgb(228,107,25)" rx="2" ry="2" />
<text  x="13.01" y="143.5" ></text>
</g>
<g >
<title>_start (7,383,262,151 samples, 99.98%)</title><rect x="10.2" y="389" width="1179.8" height="15.0" fill="rgb(245,185,44)" rx="2" ry="2" />
<text  x="13.18" y="399.5" >_start</text>
</g>
<g >
<title>rcu_segcblist_ready_cbs (2,143,988 samples, 0.03%)</title><rect x="850.9" y="149" width="0.3" height="15.0" fill="rgb(230,117,28)" rx="2" ry="2" />
<text  x="853.91" y="159.5" ></text>
</g>
<g >
<title>handle_softirqs (2,130,463 samples, 0.03%)</title><rect x="852.3" y="229" width="0.3" height="15.0" fill="rgb(238,156,37)" rx="2" ry="2" />
<text  x="855.27" y="239.5" ></text>
</g>
<g >
<title>std::vector&lt;int, std::allocator&lt;int&gt; &gt;::operator[] (1,171,801,428 samples, 15.87%)</title><rect x="852.9" y="293" width="187.3" height="15.0" fill="rgb(226,97,23)" rx="2" ry="2" />
<text  x="855.94" y="303.5" >std::vector&lt;int, std::al..</text>
</g>
<g >
<title>tick_nohz_highres_handler (10,717,780 samples, 0.15%)</title><rect x="850.6" y="213" width="1.7" height="15.0" fill="rgb(215,50,11)" rx="2" ry="2" />
<text  x="853.56" y="223.5" ></text>
</g>
<g >
<title>vm_mmap_pgoff (1,088,299 samples, 0.01%)</title><rect x="10.0" y="149" width="0.2" height="15.0" fill="rgb(237,150,35)" rx="2" ry="2" />
<text  x="13.01" y="159.5" ></text>
</g>
<g >
<title>__handle_irq_event_percpu (2,141,151 samples, 0.03%)</title><rect x="849.9" y="213" width="0.3" height="15.0" fill="rgb(236,147,35)" rx="2" ry="2" />
<text  x="852.88" y="223.5" ></text>
</g>
<g >
<title>hrtimer_interrupt (2,158,026 samples, 0.03%)</title><rect x="1039.5" y="229" width="0.3" height="15.0" fill="rgb(228,109,26)" rx="2" ry="2" />
<text  x="1042.50" y="239.5" ></text>
</g>
<g >
<title>update_cfs_group (2,155,486 samples, 0.03%)</title><rect x="851.2" y="133" width="0.4" height="15.0" fill="rgb(242,174,41)" rx="2" ry="2" />
<text  x="854.25" y="143.5" ></text>
</g>
<g >
<title>tick_sched_do_timer (2,157,171 samples, 0.03%)</title><rect x="1186.8" y="197" width="0.3" height="15.0" fill="rgb(227,104,25)" rx="2" ry="2" />
<text  x="1189.78" y="207.5" ></text>
</g>
<g >
<title>schedule (2,034,008 samples, 0.03%)</title><rect x="852.6" y="229" width="0.3" height="15.0" fill="rgb(254,229,54)" rx="2" ry="2" />
<text  x="855.62" y="239.5" ></text>
</g>
</g>
</svg>
