<?xml version="1.0" standalone="no"?>
<!DOCTYPE svg PUBLIC "-//W3C//DTD SVG 1.1//EN" "http://www.w3.org/Graphics/SVG/1.1/DTD/svg11.dtd">
<svg version="1.1" width="1200" height="566" onload="init(evt)" viewBox="0 0 1200 566" xmlns="http://www.w3.org/2000/svg" xmlns:xlink="http://www.w3.org/1999/xlink">
<!-- Flame graph stack visualization. See https://github.com/brendangregg/FlameGraph for latest version, and http://www.brendangregg.com/flamegraphs.html for examples. -->
<!-- NOTES:  -->
<defs>
	<linearGradient id="background" y1="0" y2="1" x1="0" x2="0" >
		<stop stop-color="#eeeeee" offset="5%" />
		<stop stop-color="#eeeeb0" offset="95%" />
	</linearGradient>
</defs>
<style type="text/css">
	text { font-family:Verdana; font-size:12px; fill:rgb(0,0,0); }
	#search, #ignorecase { opacity:0.1; cursor:pointer; }
	#search:hover, #search.show, #ignorecase:hover, #ignorecase.show { opacity:1; }
	#subtitle { text-anchor:middle; font-color:rgb(160,160,160); }
	#title { text-anchor:middle; font-size:17px}
	#unzoom { cursor:pointer; }
	#frames > *:hover { stroke:black; stroke-width:0.5; cursor:pointer; }
	.hide { display:none; }
	.parent { opacity:0.5; }
</style>
<script type="text/ecmascript">
<![CDATA[
	"use strict";
	var details, searchbtn, unzoombtn, matchedtxt, svg, searching, currentSearchTerm, ignorecase, ignorecaseBtn;
	function init(evt) {
		details = document.getElementById("details").firstChild;
		searchbtn = document.getElementById("search");
		ignorecaseBtn = document.getElementById("ignorecase");
		unzoombtn = document.getElementById("unzoom");
		matchedtxt = document.getElementById("matched");
		svg = document.getElementsByTagName("svg")[0];
		searching = 0;
		currentSearchTerm = null;

		// use GET parameters to restore a flamegraphs state.
		var params = get_params();
		if (params.x && params.y)
			zoom(find_group(document.querySelector('[x="' + params.x + '"][y="' + params.y + '"]')));
                if (params.s) search(params.s);
	}

	// event listeners
	window.addEventListener("click", function(e) {
		var target = find_group(e.target);
		if (target) {
			if (target.nodeName == "a") {
				if (e.ctrlKey === false) return;
				e.preventDefault();
			}
			if (target.classList.contains("parent")) unzoom(true);
			zoom(target);
			if (!document.querySelector('.parent')) {
				// we have basically done a clearzoom so clear the url
				var params = get_params();
				if (params.x) delete params.x;
				if (params.y) delete params.y;
				history.replaceState(null, null, parse_params(params));
				unzoombtn.classList.add("hide");
				return;
			}

			// set parameters for zoom state
			var el = target.querySelector("rect");
			if (el && el.attributes && el.attributes.y && el.attributes._orig_x) {
				var params = get_params()
				params.x = el.attributes._orig_x.value;
				params.y = el.attributes.y.value;
				history.replaceState(null, null, parse_params(params));
			}
		}
		else if (e.target.id == "unzoom") clearzoom();
		else if (e.target.id == "search") search_prompt();
		else if (e.target.id == "ignorecase") toggle_ignorecase();
	}, false)

	// mouse-over for info
	// show
	window.addEventListener("mouseover", function(e) {
		var target = find_group(e.target);
		if (target) details.nodeValue = "Function: " + g_to_text(target);
	}, false)

	// clear
	window.addEventListener("mouseout", function(e) {
		var target = find_group(e.target);
		if (target) details.nodeValue = ' ';
	}, false)

	// ctrl-F for search
	// ctrl-I to toggle case-sensitive search
	window.addEventListener("keydown",function (e) {
		if (e.keyCode === 114 || (e.ctrlKey && e.keyCode === 70)) {
			e.preventDefault();
			search_prompt();
		}
		else if (e.ctrlKey && e.keyCode === 73) {
			e.preventDefault();
			toggle_ignorecase();
		}
	}, false)

	// functions
	function get_params() {
		var params = {};
		var paramsarr = window.location.search.substr(1).split('&');
		for (var i = 0; i < paramsarr.length; ++i) {
			var tmp = paramsarr[i].split("=");
			if (!tmp[0] || !tmp[1]) continue;
			params[tmp[0]]  = decodeURIComponent(tmp[1]);
		}
		return params;
	}
	function parse_params(params) {
		var uri = "?";
		for (var key in params) {
			uri += key + '=' + encodeURIComponent(params[key]) + '&';
		}
		if (uri.slice(-1) == "&")
			uri = uri.substring(0, uri.length - 1);
		if (uri == '?')
			uri = window.location.href.split('?')[0];
		return uri;
	}
	function find_child(node, selector) {
		var children = node.querySelectorAll(selector);
		if (children.length) return children[0];
	}
	function find_group(node) {
		var parent = node.parentElement;
		if (!parent) return;
		if (parent.id == "frames") return node;
		return find_group(parent);
	}
	function orig_save(e, attr, val) {
		if (e.attributes["_orig_" + attr] != undefined) return;
		if (e.attributes[attr] == undefined) return;
		if (val == undefined) val = e.attributes[attr].value;
		e.setAttribute("_orig_" + attr, val);
	}
	function orig_load(e, attr) {
		if (e.attributes["_orig_"+attr] == undefined) return;
		e.attributes[attr].value = e.attributes["_orig_" + attr].value;
		e.removeAttribute("_orig_"+attr);
	}
	function g_to_text(e) {
		var text = find_child(e, "title").firstChild.nodeValue;
		return (text)
	}
	function g_to_func(e) {
		var func = g_to_text(e);
		// if there's any manipulation we want to do to the function
		// name before it's searched, do it here before returning.
		return (func);
	}
	function update_text(e) {
		var r = find_child(e, "rect");
		var t = find_child(e, "text");
		var w = parseFloat(r.attributes.width.value) -3;
		var txt = find_child(e, "title").textContent.replace(/\([^(]*\)$/,"");
		t.attributes.x.value = parseFloat(r.attributes.x.value) + 3;

		// Smaller than this size won't fit anything
		if (w < 2 * 12 * 0.59) {
			t.textContent = "";
			return;
		}

		t.textContent = txt;
		var sl = t.getSubStringLength(0, txt.length);
		// check if only whitespace or if we can fit the entire string into width w
		if (/^ *$/.test(txt) || sl < w)
			return;

		// this isn't perfect, but gives a good starting point
		// and avoids calling getSubStringLength too often
		var start = Math.floor((w/sl) * txt.length);
		for (var x = start; x > 0; x = x-2) {
			if (t.getSubStringLength(0, x + 2) <= w) {
				t.textContent = txt.substring(0, x) + "..";
				return;
			}
		}
		t.textContent = "";
	}

	// zoom
	function zoom_reset(e) {
		if (e.attributes != undefined) {
			orig_load(e, "x");
			orig_load(e, "width");
		}
		if (e.childNodes == undefined) return;
		for (var i = 0, c = e.childNodes; i < c.length; i++) {
			zoom_reset(c[i]);
		}
	}
	function zoom_child(e, x, ratio) {
		if (e.attributes != undefined) {
			if (e.attributes.x != undefined) {
				orig_save(e, "x");
				e.attributes.x.value = (parseFloat(e.attributes.x.value) - x - 10) * ratio + 10;
				if (e.tagName == "text")
					e.attributes.x.value = find_child(e.parentNode, "rect[x]").attributes.x.value + 3;
			}
			if (e.attributes.width != undefined) {
				orig_save(e, "width");
				e.attributes.width.value = parseFloat(e.attributes.width.value) * ratio;
			}
		}

		if (e.childNodes == undefined) return;
		for (var i = 0, c = e.childNodes; i < c.length; i++) {
			zoom_child(c[i], x - 10, ratio);
		}
	}
	function zoom_parent(e) {
		if (e.attributes) {
			if (e.attributes.x != undefined) {
				orig_save(e, "x");
				e.attributes.x.value = 10;
			}
			if (e.attributes.width != undefined) {
				orig_save(e, "width");
				e.attributes.width.value = parseInt(svg.width.baseVal.value) - (10 * 2);
			}
		}
		if (e.childNodes == undefined) return;
		for (var i = 0, c = e.childNodes; i < c.length; i++) {
			zoom_parent(c[i]);
		}
	}
	function zoom(node) {
		var attr = find_child(node, "rect").attributes;
		var width = parseFloat(attr.width.value);
		var xmin = parseFloat(attr.x.value);
		var xmax = parseFloat(xmin + width);
		var ymin = parseFloat(attr.y.value);
		var ratio = (svg.width.baseVal.value - 2 * 10) / width;

		// XXX: Workaround for JavaScript float issues (fix me)
		var fudge = 0.0001;

		unzoombtn.classList.remove("hide");

		var el = document.getElementById("frames").children;
		for (var i = 0; i < el.length; i++) {
			var e = el[i];
			var a = find_child(e, "rect").attributes;
			var ex = parseFloat(a.x.value);
			var ew = parseFloat(a.width.value);
			var upstack;
			// Is it an ancestor
			if (0 == 0) {
				upstack = parseFloat(a.y.value) > ymin;
			} else {
				upstack = parseFloat(a.y.value) < ymin;
			}
			if (upstack) {
				// Direct ancestor
				if (ex <= xmin && (ex+ew+fudge) >= xmax) {
					e.classList.add("parent");
					zoom_parent(e);
					update_text(e);
				}
				// not in current path
				else
					e.classList.add("hide");
			}
			// Children maybe
			else {
				// no common path
				if (ex < xmin || ex + fudge >= xmax) {
					e.classList.add("hide");
				}
				else {
					zoom_child(e, xmin, ratio);
					update_text(e);
				}
			}
		}
		search();
	}
	function unzoom(dont_update_text) {
		unzoombtn.classList.add("hide");
		var el = document.getElementById("frames").children;
		for(var i = 0; i < el.length; i++) {
			el[i].classList.remove("parent");
			el[i].classList.remove("hide");
			zoom_reset(el[i]);
			if(!dont_update_text) update_text(el[i]);
		}
		search();
	}
	function clearzoom() {
		unzoom();

		// remove zoom state
		var params = get_params();
		if (params.x) delete params.x;
		if (params.y) delete params.y;
		history.replaceState(null, null, parse_params(params));
	}

	// search
	function toggle_ignorecase() {
		ignorecase = !ignorecase;
		if (ignorecase) {
			ignorecaseBtn.classList.add("show");
		} else {
			ignorecaseBtn.classList.remove("show");
		}
		reset_search();
		search();
	}
	function reset_search() {
		var el = document.querySelectorAll("#frames rect");
		for (var i = 0; i < el.length; i++) {
			orig_load(el[i], "fill")
		}
		var params = get_params();
		delete params.s;
		history.replaceState(null, null, parse_params(params));
	}
	function search_prompt() {
		if (!searching) {
			var term = prompt("Enter a search term (regexp " +
			    "allowed, eg: ^ext4_)"
			    + (ignorecase ? ", ignoring case" : "")
			    + "\nPress Ctrl-i to toggle case sensitivity", "");
			if (term != null) search(term);
		} else {
			reset_search();
			searching = 0;
			currentSearchTerm = null;
			searchbtn.classList.remove("show");
			searchbtn.firstChild.nodeValue = "Search"
			matchedtxt.classList.add("hide");
			matchedtxt.firstChild.nodeValue = ""
		}
	}
	function search(term) {
		if (term) currentSearchTerm = term;
		if (currentSearchTerm === null) return;

		var re = new RegExp(currentSearchTerm, ignorecase ? 'i' : '');
		var el = document.getElementById("frames").children;
		var matches = new Object();
		var maxwidth = 0;
		for (var i = 0; i < el.length; i++) {
			var e = el[i];
			var func = g_to_func(e);
			var rect = find_child(e, "rect");
			if (func == null || rect == null)
				continue;

			// Save max width. Only works as we have a root frame
			var w = parseFloat(rect.attributes.width.value);
			if (w > maxwidth)
				maxwidth = w;

			if (func.match(re)) {
				// highlight
				var x = parseFloat(rect.attributes.x.value);
				orig_save(rect, "fill");
				rect.attributes.fill.value = "rgb(230,0,230)";

				// remember matches
				if (matches[x] == undefined) {
					matches[x] = w;
				} else {
					if (w > matches[x]) {
						// overwrite with parent
						matches[x] = w;
					}
				}
				searching = 1;
			}
		}
		if (!searching)
			return;
		var params = get_params();
		params.s = currentSearchTerm;
		history.replaceState(null, null, parse_params(params));

		searchbtn.classList.add("show");
		searchbtn.firstChild.nodeValue = "Reset Search";

		// calculate percent matched, excluding vertical overlap
		var count = 0;
		var lastx = -1;
		var lastw = 0;
		var keys = Array();
		for (k in matches) {
			if (matches.hasOwnProperty(k))
				keys.push(k);
		}
		// sort the matched frames by their x location
		// ascending, then width descending
		keys.sort(function(a, b){
			return a - b;
		});
		// Step through frames saving only the biggest bottom-up frames
		// thanks to the sort order. This relies on the tree property
		// where children are always smaller than their parents.
		var fudge = 0.0001;	// JavaScript floating point
		for (var k in keys) {
			var x = parseFloat(keys[k]);
			var w = matches[keys[k]];
			if (x >= lastx + lastw - fudge) {
				count += w;
				lastx = x;
				lastw = w;
			}
		}
		// display matched percent
		matchedtxt.classList.remove("hide");
		var pct = 100 * count / maxwidth;
		if (pct != 100) pct = pct.toFixed(1)
		matchedtxt.firstChild.nodeValue = "Matched: " + pct + "%";
	}
]]>
</script>
<rect x="0.0" y="0" width="1200.0" height="566.0" fill="url(#background)"  />
<text id="title" x="600.00" y="24" >Flame Graph</text>
<text id="details" x="10.00" y="549" > </text>
<text id="unzoom" x="10.00" y="24" class="hide">Reset Zoom</text>
<text id="search" x="1090.00" y="24" >Search</text>
<text id="ignorecase" x="1174.00" y="24" >ic</text>
<text id="matched" x="1090.00" y="549" > </text>
<g id="frames">
<g >
<title>_dl_start_user (1,451,165 samples, 0.02%)</title><rect x="10.0" y="485" width="0.2" height="15.0" fill="rgb(236,145,34)" rx="2" ry="2" />
<text  x="13.01" y="495.5" ></text>
</g>
<g >
<title>scheduler_tick (2,175,752 samples, 0.03%)</title><rect x="1030.8" y="245" width="0.4" height="15.0" fill="rgb(246,190,45)" rx="2" ry="2" />
<text  x="1033.80" y="255.5" ></text>
</g>
<g >
<title>trigger_load_balance (2,175,752 samples, 0.03%)</title><rect x="1030.8" y="229" width="0.4" height="15.0" fill="rgb(228,108,26)" rx="2" ry="2" />
<text  x="1033.80" y="239.5" ></text>
</g>
<g >
<title>__rcu_read_lock (2,175,752 samples, 0.03%)</title><rect x="1030.8" y="213" width="0.4" height="15.0" fill="rgb(220,69,16)" rx="2" ry="2" />
<text  x="1033.80" y="223.5" ></text>
</g>
<g >
<title>ksys_mmap_pgoff (1,351,003 samples, 0.02%)</title><rect x="10.0" y="261" width="0.2" height="15.0" fill="rgb(245,185,44)" rx="2" ry="2" />
<text  x="13.01" y="271.5" ></text>
</g>
<g >
<title>vm_mmap_pgoff (1,351,003 samples, 0.02%)</title><rect x="10.0" y="245" width="0.2" height="15.0" fill="rgb(237,150,35)" rx="2" ry="2" />
<text  x="13.01" y="255.5" ></text>
</g>
<g >
<title>int* std::fill_n&lt;int*, unsigned long, int&gt; (8,752,027 samples, 0.12%)</title><rect x="1188.6" y="325" width="1.4" height="15.0" fill="rgb(225,95,22)" rx="2" ry="2" />
<text  x="1191.57" y="335.5" ></text>
</g>
<g >
<title>scheduler_tick (8,638,150 samples, 0.12%)</title><rect x="853.9" y="261" width="1.4" height="15.0" fill="rgb(246,190,45)" rx="2" ry="2" />
<text  x="856.86" y="271.5" ></text>
</g>
<g >
<title>_start (7,223,095,500 samples, 99.98%)</title><rect x="10.2" y="485" width="1179.8" height="15.0" fill="rgb(245,185,44)" rx="2" ry="2" />
<text  x="13.25" y="495.5" >_start</text>
</g>
<g >
<title>tick_sched_do_timer (2,194,603 samples, 0.03%)</title><rect x="852.8" y="293" width="0.3" height="15.0" fill="rgb(227,104,25)" rx="2" ry="2" />
<text  x="855.79" y="303.5" ></text>
</g>
<g >
<title>do_anonymous_page (8,752,027 samples, 0.12%)</title><rect x="1188.6" y="165" width="1.4" height="15.0" fill="rgb(238,155,37)" rx="2" ry="2" />
<text  x="1191.57" y="175.5" ></text>
</g>
<g >
<title>update_vsyscall (2,194,603 samples, 0.03%)</title><rect x="852.8" y="213" width="0.3" height="15.0" fill="rgb(254,229,54)" rx="2" ry="2" />
<text  x="855.79" y="223.5" ></text>
</g>
<g >
<title>mmap64 (1,351,003 samples, 0.02%)</title><rect x="10.0" y="341" width="0.2" height="15.0" fill="rgb(220,70,16)" rx="2" ry="2" />
<text  x="13.01" y="351.5" ></text>
</g>
<g >
<title>mas_wr_store_entry.isra.0 (1,351,003 samples, 0.02%)</title><rect x="10.0" y="117" width="0.2" height="15.0" fill="rgb(226,98,23)" rx="2" ry="2" />
<text  x="13.01" y="127.5" ></text>
</g>
<g >
<title>sched_clock_cpu (2,178,957 samples, 0.03%)</title><rect x="854.9" y="229" width="0.4" height="15.0" fill="rgb(229,113,27)" rx="2" ry="2" />
<text  x="857.91" y="239.5" ></text>
</g>
<g >
<title>timekeeping_advance (2,180,822 samples, 0.03%)</title><rect x="1186.4" y="245" width="0.4" height="15.0" fill="rgb(227,104,25)" rx="2" ry="2" />
<text  x="1189.42" y="255.5" ></text>
</g>
<g >
<title>update_wall_time (2,175,124 samples, 0.03%)</title><rect x="1030.4" y="245" width="0.4" height="15.0" fill="rgb(207,11,2)" rx="2" ry="2" />
<text  x="1033.44" y="255.5" ></text>
</g>
<g >
<title>update_wall_time (2,194,603 samples, 0.03%)</title><rect x="852.8" y="261" width="0.3" height="15.0" fill="rgb(207,11,2)" rx="2" ry="2" />
<text  x="855.79" y="271.5" ></text>
</g>
<g >
<title>_dl_catch_exception (1,351,003 samples, 0.02%)</title><rect x="10.0" y="405" width="0.2" height="15.0" fill="rgb(253,223,53)" rx="2" ry="2" />
<text  x="13.01" y="415.5" ></text>
</g>
<g >
<title>binSearch (7,224,614,949 samples, 100.00%)</title><rect x="10.0" y="501" width="1180.0" height="15.0" fill="rgb(228,108,25)" rx="2" ry="2" />
<text  x="13.00" y="511.5" >binSearch</text>
</g>
<g >
<title>x64_sys_call (1,351,003 samples, 0.02%)</title><rect x="10.0" y="293" width="0.2" height="15.0" fill="rgb(247,194,46)" rx="2" ry="2" />
<text  x="13.01" y="303.5" ></text>
</g>
<g >
<title>update_process_times (2,175,752 samples, 0.03%)</title><rect x="1030.8" y="261" width="0.4" height="15.0" fill="rgb(250,209,50)" rx="2" ry="2" />
<text  x="1033.80" y="271.5" ></text>
</g>
<g >
<title>__x64_sys_mmap (1,351,003 samples, 0.02%)</title><rect x="10.0" y="277" width="0.2" height="15.0" fill="rgb(223,83,19)" rx="2" ry="2" />
<text  x="13.01" y="287.5" ></text>
</g>
<g >
<title>get_page_from_freelist (8,752,027 samples, 0.12%)</title><rect x="1188.6" y="85" width="1.4" height="15.0" fill="rgb(252,218,52)" rx="2" ry="2" />
<text  x="1191.57" y="95.5" ></text>
</g>
<g >
<title>alloc_pages_mpol (8,752,027 samples, 0.12%)</title><rect x="1188.6" y="117" width="1.4" height="15.0" fill="rgb(254,227,54)" rx="2" ry="2" />
<text  x="1191.57" y="127.5" ></text>
</g>
<g >
<title>mas_wr_modify (1,351,003 samples, 0.02%)</title><rect x="10.0" y="101" width="0.2" height="15.0" fill="rgb(221,75,18)" rx="2" ry="2" />
<text  x="13.01" y="111.5" ></text>
</g>
<g >
<title>alloc_anon_folio (8,752,027 samples, 0.12%)</title><rect x="1188.6" y="149" width="1.4" height="15.0" fill="rgb(223,86,20)" rx="2" ry="2" />
<text  x="1191.57" y="159.5" ></text>
</g>
<g >
<title>handle_mm_fault (8,752,027 samples, 0.12%)</title><rect x="1188.6" y="213" width="1.4" height="15.0" fill="rgb(234,135,32)" rx="2" ry="2" />
<text  x="1191.57" y="223.5" ></text>
</g>
<g >
<title>sched_core_idle_cpu (2,188,101 samples, 0.03%)</title><rect x="855.3" y="325" width="0.3" height="15.0" fill="rgb(231,120,28)" rx="2" ry="2" />
<text  x="858.27" y="335.5" ></text>
</g>
<g >
<title>do_vmi_align_munmap (1,351,003 samples, 0.02%)</title><rect x="10.0" y="181" width="0.2" height="15.0" fill="rgb(211,29,7)" rx="2" ry="2" />
<text  x="13.01" y="191.5" ></text>
</g>
<g >
<title>tick_sched_do_timer (2,180,822 samples, 0.03%)</title><rect x="1186.4" y="293" width="0.4" height="15.0" fill="rgb(227,104,25)" rx="2" ry="2" />
<text  x="1189.42" y="303.5" ></text>
</g>
<g >
<title>update_curr (4,257,500 samples, 0.06%)</title><rect x="853.9" y="229" width="0.7" height="15.0" fill="rgb(227,105,25)" rx="2" ry="2" />
<text  x="856.86" y="239.5" ></text>
</g>
<g >
<title>mas_split.isra.0 (1,351,003 samples, 0.02%)</title><rect x="10.0" y="69" width="0.2" height="15.0" fill="rgb(245,188,45)" rx="2" ry="2" />
<text  x="13.01" y="79.5" ></text>
</g>
<g >
<title>void std::__fill_a&lt;int*, int&gt; (8,752,027 samples, 0.12%)</title><rect x="1188.6" y="293" width="1.4" height="15.0" fill="rgb(238,154,37)" rx="2" ry="2" />
<text  x="1191.57" y="303.5" ></text>
</g>
<g >
<title>update_rq_clock (2,178,957 samples, 0.03%)</title><rect x="854.9" y="245" width="0.4" height="15.0" fill="rgb(231,119,28)" rx="2" ry="2" />
<text  x="857.91" y="255.5" ></text>
</g>
<g >
<title>tick_do_update_jiffies64 (2,180,822 samples, 0.03%)</title><rect x="1186.4" y="277" width="0.4" height="15.0" fill="rgb(208,14,3)" rx="2" ry="2" />
<text  x="1189.42" y="287.5" ></text>
</g>
<g >
<title>vma_alloc_folio (8,752,027 samples, 0.12%)</title><rect x="1188.6" y="133" width="1.4" height="15.0" fill="rgb(245,187,44)" rx="2" ry="2" />
<text  x="1191.57" y="143.5" ></text>
</g>
<g >
<title>tick_do_update_jiffies64 (2,194,603 samples, 0.03%)</title><rect x="852.8" y="277" width="0.3" height="15.0" fill="rgb(208,14,3)" rx="2" ry="2" />
<text  x="855.79" y="287.5" ></text>
</g>
<g >
<title>std::vector&lt;int, std::allocator&lt;int&gt; &gt;::_M_default_initialize (8,752,027 samples, 0.12%)</title><rect x="1188.6" y="389" width="1.4" height="15.0" fill="rgb(210,25,6)" rx="2" ry="2" />
<text  x="1191.57" y="399.5" ></text>
</g>
<g >
<title>rmqueue_bulk (4,290,833 samples, 0.06%)</title><rect x="1189.3" y="37" width="0.7" height="15.0" fill="rgb(235,138,33)" rx="2" ry="2" />
<text  x="1192.30" y="47.5" ></text>
</g>
<g >
<title>asm_sysvec_apic_timer_interrupt (2,180,822 samples, 0.03%)</title><rect x="1186.4" y="389" width="0.4" height="15.0" fill="rgb(232,127,30)" rx="2" ry="2" />
<text  x="1189.42" y="399.5" ></text>
</g>
<g >
<title>mas_store_prealloc (1,351,003 samples, 0.02%)</title><rect x="10.0" y="133" width="0.2" height="15.0" fill="rgb(223,85,20)" rx="2" ry="2" />
<text  x="13.01" y="143.5" ></text>
</g>
<g >
<title>update_wall_time (2,180,822 samples, 0.03%)</title><rect x="1186.4" y="261" width="0.4" height="15.0" fill="rgb(207,11,2)" rx="2" ry="2" />
<text  x="1189.42" y="271.5" ></text>
</g>
<g >
<title>__handle_mm_fault (8,752,027 samples, 0.12%)</title><rect x="1188.6" y="197" width="1.4" height="15.0" fill="rgb(207,9,2)" rx="2" ry="2" />
<text  x="1191.57" y="207.5" ></text>
</g>
<g >
<title>__hrtimer_run_queues (15,203,633 samples, 0.21%)</title><rect x="852.8" y="325" width="2.5" height="15.0" fill="rgb(237,150,35)" rx="2" ry="2" />
<text  x="855.79" y="335.5" ></text>
</g>
<g >
<title>exc_page_fault (8,752,027 samples, 0.12%)</title><rect x="1188.6" y="245" width="1.4" height="15.0" fill="rgb(212,35,8)" rx="2" ry="2" />
<text  x="1191.57" y="255.5" ></text>
</g>
<g >
<title>std::vector&lt;int, std::allocator&lt;int&gt; &gt;::operator[] (1,076,592,244 samples, 14.90%)</title><rect x="855.6" y="389" width="175.9" height="15.0" fill="rgb(226,97,23)" rx="2" ry="2" />
<text  x="858.63" y="399.5" >std::vector&lt;int, std::..</text>
</g>
<g >
<title>dl_main (1,351,003 samples, 0.02%)</title><rect x="10.0" y="437" width="0.2" height="15.0" fill="rgb(236,145,34)" rx="2" ry="2" />
<text  x="13.01" y="447.5" ></text>
</g>
<g >
<title>std::vector&lt;int, std::allocator&lt;int&gt; &gt;::size (10,952,250 samples, 0.15%)</title><rect x="1186.8" y="405" width="1.8" height="15.0" fill="rgb(211,32,7)" rx="2" ry="2" />
<text  x="1189.78" y="415.5" ></text>
</g>
<g >
<title>_dl_start (1,451,165 samples, 0.02%)</title><rect x="10.0" y="469" width="0.2" height="15.0" fill="rgb(237,151,36)" rx="2" ry="2" />
<text  x="13.01" y="479.5" ></text>
</g>
<g >
<title>account_user_time (2,183,437 samples, 0.03%)</title><rect x="853.1" y="245" width="0.4" height="15.0" fill="rgb(225,96,23)" rx="2" ry="2" />
<text  x="856.14" y="255.5" ></text>
</g>
<g >
<title>mas_wr_bnode (1,351,003 samples, 0.02%)</title><rect x="10.0" y="85" width="0.2" height="15.0" fill="rgb(248,198,47)" rx="2" ry="2" />
<text  x="13.01" y="95.5" ></text>
</g>
<g >
<title>irq_exit_rcu (2,188,101 samples, 0.03%)</title><rect x="855.3" y="357" width="0.3" height="15.0" fill="rgb(254,227,54)" rx="2" ry="2" />
<text  x="858.27" y="367.5" ></text>
</g>
<g >
<title>clear_page_erms (4,461,194 samples, 0.06%)</title><rect x="1188.6" y="69" width="0.7" height="15.0" fill="rgb(229,113,27)" rx="2" ry="2" />
<text  x="1191.57" y="79.5" ></text>
</g>
<g >
<title>vma_complete (1,351,003 samples, 0.02%)</title><rect x="10.0" y="149" width="0.2" height="15.0" fill="rgb(220,72,17)" rx="2" ry="2" />
<text  x="13.01" y="159.5" ></text>
</g>
<g >
<title>all (7,224,618,648 samples, 100%)</title><rect x="10.0" y="517" width="1180.0" height="15.0" fill="rgb(213,39,9)" rx="2" ry="2" />
<text  x="13.00" y="527.5" ></text>
</g>
<g >
<title>hrtimer_interrupt (2,180,822 samples, 0.03%)</title><rect x="1186.4" y="341" width="0.4" height="15.0" fill="rgb(228,109,26)" rx="2" ry="2" />
<text  x="1189.42" y="351.5" ></text>
</g>
<g >
<title>entry_SYSCALL_64_after_hwframe (1,351,003 samples, 0.02%)</title><rect x="10.0" y="325" width="0.2" height="15.0" fill="rgb(218,63,15)" rx="2" ry="2" />
<text  x="13.01" y="335.5" ></text>
</g>
<g >
<title>sysvec_apic_timer_interrupt (19,595,043 samples, 0.27%)</title><rect x="852.4" y="373" width="3.2" height="15.0" fill="rgb(220,69,16)" rx="2" ry="2" />
<text  x="855.43" y="383.5" ></text>
</g>
<g >
<title>timekeeping_advance (2,194,603 samples, 0.03%)</title><rect x="852.8" y="245" width="0.3" height="15.0" fill="rgb(227,104,25)" rx="2" ry="2" />
<text  x="855.79" y="255.5" ></text>
</g>
<g >
<title>__sysvec_apic_timer_interrupt (2,180,822 samples, 0.03%)</title><rect x="1186.4" y="357" width="0.4" height="15.0" fill="rgb(242,173,41)" rx="2" ry="2" />
<text  x="1189.42" y="367.5" ></text>
</g>
<g >
<title>rcu_sched_clock_irq (2,187,443 samples, 0.03%)</title><rect x="853.5" y="261" width="0.4" height="15.0" fill="rgb(208,15,3)" rx="2" ry="2" />
<text  x="856.50" y="271.5" ></text>
</g>
<g >
<title>update_vdso_data.constprop.0 (2,194,603 samples, 0.03%)</title><rect x="852.8" y="197" width="0.3" height="15.0" fill="rgb(251,213,51)" rx="2" ry="2" />
<text  x="855.79" y="207.5" ></text>
</g>
<g >
<title>rmqueue (4,290,833 samples, 0.06%)</title><rect x="1189.3" y="69" width="0.7" height="15.0" fill="rgb(226,98,23)" rx="2" ry="2" />
<text  x="1192.30" y="79.5" ></text>
</g>
<g >
<title>tick_nohz_highres_handler (2,180,822 samples, 0.03%)</title><rect x="1186.4" y="309" width="0.4" height="15.0" fill="rgb(215,50,11)" rx="2" ry="2" />
<text  x="1189.42" y="319.5" ></text>
</g>
<g >
<title>timekeeping_adjust.constprop.0 (2,180,822 samples, 0.03%)</title><rect x="1186.4" y="229" width="0.4" height="15.0" fill="rgb(222,78,18)" rx="2" ry="2" />
<text  x="1189.42" y="239.5" ></text>
</g>
<g >
<title>__hrtimer_run_queues (2,180,822 samples, 0.03%)</title><rect x="1186.4" y="325" width="0.4" height="15.0" fill="rgb(237,150,35)" rx="2" ry="2" />
<text  x="1189.42" y="335.5" ></text>
</g>
<g >
<title>timekeeping_update (2,175,124 samples, 0.03%)</title><rect x="1030.4" y="213" width="0.4" height="15.0" fill="rgb(238,152,36)" rx="2" ry="2" />
<text  x="1033.44" y="223.5" ></text>
</g>
<g >
<title>asm_exc_page_fault (8,752,027 samples, 0.12%)</title><rect x="1188.6" y="261" width="1.4" height="15.0" fill="rgb(225,93,22)" rx="2" ry="2" />
<text  x="1191.57" y="271.5" ></text>
</g>
<g >
<title>hrtimer_interrupt (15,203,633 samples, 0.21%)</title><rect x="852.8" y="341" width="2.5" height="15.0" fill="rgb(228,109,26)" rx="2" ry="2" />
<text  x="855.79" y="351.5" ></text>
</g>
<g >
<title>tick_sched_handle (2,175,752 samples, 0.03%)</title><rect x="1030.8" y="277" width="0.4" height="15.0" fill="rgb(219,68,16)" rx="2" ry="2" />
<text  x="1033.80" y="287.5" ></text>
</g>
<g >
<title>timekeeping_advance (2,175,124 samples, 0.03%)</title><rect x="1030.4" y="229" width="0.4" height="15.0" fill="rgb(227,104,25)" rx="2" ry="2" />
<text  x="1033.44" y="239.5" ></text>
</g>
<g >
<title>mmap_region (1,351,003 samples, 0.02%)</title><rect x="10.0" y="213" width="0.2" height="15.0" fill="rgb(231,121,28)" rx="2" ry="2" />
<text  x="13.01" y="223.5" ></text>
</g>
<g >
<title>timekeeping_update (2,194,603 samples, 0.03%)</title><rect x="852.8" y="229" width="0.3" height="15.0" fill="rgb(238,152,36)" rx="2" ry="2" />
<text  x="855.79" y="239.5" ></text>
</g>
<g >
<title>binary_search (6,240,783,401 samples, 86.38%)</title><rect x="20.3" y="405" width="1019.3" height="15.0" fill="rgb(213,39,9)" rx="2" ry="2" />
<text  x="23.33" y="415.5" >binary_search</text>
</g>
<g >
<title>__rmqueue_pcplist (4,290,833 samples, 0.06%)</title><rect x="1189.3" y="53" width="0.7" height="15.0" fill="rgb(230,118,28)" rx="2" ry="2" />
<text  x="1192.30" y="63.5" ></text>
</g>
<g >
<title>hrtimer_interrupt (6,541,798 samples, 0.09%)</title><rect x="1030.1" y="325" width="1.1" height="15.0" fill="rgb(228,109,26)" rx="2" ry="2" />
<text  x="1033.08" y="335.5" ></text>
</g>
<g >
<title>asm_sysvec_apic_timer_interrupt (8,470,090 samples, 0.12%)</title><rect x="1030.1" y="373" width="1.4" height="15.0" fill="rgb(232,127,30)" rx="2" ry="2" />
<text  x="1033.08" y="383.5" ></text>
</g>
<g >
<title>std::vector&lt;int, std::allocator&lt;int&gt; &gt;::vector (8,752,027 samples, 0.12%)</title><rect x="1188.6" y="405" width="1.4" height="15.0" fill="rgb(216,53,12)" rx="2" ry="2" />
<text  x="1191.57" y="415.5" ></text>
</g>
<g >
<title>tick_nohz_highres_handler (4,350,876 samples, 0.06%)</title><rect x="1030.4" y="293" width="0.8" height="15.0" fill="rgb(215,50,11)" rx="2" ry="2" />
<text  x="1033.44" y="303.5" ></text>
</g>
<g >
<title>__libc_start_main@@GLIBC_2.34 (7,223,090,225 samples, 99.98%)</title><rect x="10.2" y="469" width="1179.8" height="15.0" fill="rgb(229,113,27)" rx="2" ry="2" />
<text  x="13.25" y="479.5" >__libc_start_main@@GLIBC_2.34</text>
</g>
<g >
<title>_dl_sysdep_start (1,351,003 samples, 0.02%)</title><rect x="10.0" y="453" width="0.2" height="15.0" fill="rgb(234,137,32)" rx="2" ry="2" />
<text  x="13.01" y="463.5" ></text>
</g>
<g >
<title>std::vector&lt;int, std::allocator&lt;int&gt; &gt;::operator[] (900,895,357 samples, 12.47%)</title><rect x="1039.6" y="405" width="147.2" height="15.0" fill="rgb(226,97,23)" rx="2" ry="2" />
<text  x="1042.64" y="415.5" >std::vector&lt;int, s..</text>
</g>
<g >
<title>_dl_map_object_deps (1,351,003 samples, 0.02%)</title><rect x="10.0" y="421" width="0.2" height="15.0" fill="rgb(219,68,16)" rx="2" ry="2" />
<text  x="13.01" y="431.5" ></text>
</g>
<g >
<title>__alloc_pages (8,752,027 samples, 0.12%)</title><rect x="1188.6" y="101" width="1.4" height="15.0" fill="rgb(233,129,30)" rx="2" ry="2" />
<text  x="1191.57" y="111.5" ></text>
</g>
<g >
<title>__gnu_cxx::__enable_if&lt;std::__is_scalar&lt;int&gt;::__value, void&gt;::__type std::__fill_a1&lt;int*, int&gt; (8,752,027 samples, 0.12%)</title><rect x="1188.6" y="277" width="1.4" height="15.0" fill="rgb(228,109,26)" rx="2" ry="2" />
<text  x="1191.57" y="287.5" ></text>
</g>
<g >
<title>std::vector&lt;int, std::allocator&lt;int&gt; &gt;::size (50,022,474 samples, 0.69%)</title><rect x="1031.5" y="389" width="8.1" height="15.0" fill="rgb(211,32,7)" rx="2" ry="2" />
<text  x="1034.47" y="399.5" ></text>
</g>
<g >
<title>asm_sysvec_apic_timer_interrupt (19,595,043 samples, 0.27%)</title><rect x="852.4" y="389" width="3.2" height="15.0" fill="rgb(232,127,30)" rx="2" ry="2" />
<text  x="855.43" y="399.5" ></text>
</g>
<g >
<title>openaux (1,351,003 samples, 0.02%)</title><rect x="10.0" y="389" width="0.2" height="15.0" fill="rgb(252,217,52)" rx="2" ry="2" />
<text  x="13.01" y="399.5" ></text>
</g>
<g >
<title>account_process_tick (2,183,437 samples, 0.03%)</title><rect x="853.1" y="261" width="0.4" height="15.0" fill="rgb(234,136,32)" rx="2" ry="2" />
<text  x="856.14" y="271.5" ></text>
</g>
<g >
<title>__sysvec_apic_timer_interrupt (15,203,633 samples, 0.21%)</title><rect x="852.8" y="357" width="2.5" height="15.0" fill="rgb(242,173,41)" rx="2" ry="2" />
<text  x="855.79" y="367.5" ></text>
</g>
<g >
<title>int* std::__fill_n_a&lt;int*, unsigned long, int&gt; (8,752,027 samples, 0.12%)</title><rect x="1188.6" y="309" width="1.4" height="15.0" fill="rgb(208,14,3)" rx="2" ry="2" />
<text  x="1191.57" y="319.5" ></text>
</g>
<g >
<title>__split_vma (1,351,003 samples, 0.02%)</title><rect x="10.0" y="165" width="0.2" height="15.0" fill="rgb(237,150,36)" rx="2" ry="2" />
<text  x="13.01" y="175.5" ></text>
</g>
<g >
<title>do_user_addr_fault (8,752,027 samples, 0.12%)</title><rect x="1188.6" y="229" width="1.4" height="15.0" fill="rgb(228,108,25)" rx="2" ry="2" />
<text  x="1191.57" y="239.5" ></text>
</g>
<g >
<title>__cgroup_account_cputime_field (2,183,437 samples, 0.03%)</title><rect x="853.1" y="229" width="0.4" height="15.0" fill="rgb(232,126,30)" rx="2" ry="2" />
<text  x="856.14" y="239.5" ></text>
</g>
<g >
<title>int* std::__uninitialized_default_n_1&lt;true&gt;::__uninit_default_n&lt;int*, unsigned long&gt; (8,752,027 samples, 0.12%)</title><rect x="1188.6" y="341" width="1.4" height="15.0" fill="rgb(212,35,8)" rx="2" ry="2" />
<text  x="1191.57" y="351.5" ></text>
</g>
<g >
<title>hrtimer_update_next_event (1,928,292 samples, 0.03%)</title><rect x="1031.2" y="325" width="0.3" height="15.0" fill="rgb(225,92,22)" rx="2" ry="2" />
<text  x="1034.15" y="335.5" ></text>
</g>
<g >
<title>mas_topiary_replace (1,351,003 samples, 0.02%)</title><rect x="10.0" y="53" width="0.2" height="15.0" fill="rgb(221,73,17)" rx="2" ry="2" />
<text  x="13.01" y="63.5" ></text>
</g>
<g >
<title>__hrtimer_run_queues (4,350,876 samples, 0.06%)</title><rect x="1030.4" y="309" width="0.8" height="15.0" fill="rgb(237,150,35)" rx="2" ry="2" />
<text  x="1033.44" y="319.5" ></text>
</g>
<g >
<title>main (7,223,090,225 samples, 99.98%)</title><rect x="10.2" y="437" width="1179.8" height="15.0" fill="rgb(243,179,42)" rx="2" ry="2" />
<text  x="13.25" y="447.5" >main</text>
</g>
<g >
<title>binary_search (29,886,471 samples, 0.41%)</title><rect x="10.2" y="421" width="4.9" height="15.0" fill="rgb(213,39,9)" rx="2" ry="2" />
<text  x="13.25" y="431.5" ></text>
</g>
<g >
<title>sysvec_apic_timer_interrupt (8,470,090 samples, 0.12%)</title><rect x="1030.1" y="357" width="1.4" height="15.0" fill="rgb(220,69,16)" rx="2" ry="2" />
<text  x="1033.08" y="367.5" ></text>
</g>
<g >
<title>sysvec_apic_timer_interrupt (2,180,822 samples, 0.03%)</title><rect x="1186.4" y="373" width="0.4" height="15.0" fill="rgb(220,69,16)" rx="2" ry="2" />
<text  x="1189.42" y="383.5" ></text>
</g>
<g >
<title>_dl_map_object (1,351,003 samples, 0.02%)</title><rect x="10.0" y="373" width="0.2" height="15.0" fill="rgb(248,199,47)" rx="2" ry="2" />
<text  x="13.01" y="383.5" ></text>
</g>
<g >
<title>handle_pte_fault (8,752,027 samples, 0.12%)</title><rect x="1188.6" y="181" width="1.4" height="15.0" fill="rgb(217,57,13)" rx="2" ry="2" />
<text  x="1191.57" y="191.5" ></text>
</g>
<g >
<title>update_load_avg (2,201,693 samples, 0.03%)</title><rect x="854.6" y="229" width="0.3" height="15.0" fill="rgb(240,165,39)" rx="2" ry="2" />
<text  x="857.55" y="239.5" ></text>
</g>
<g >
<title>__irq_exit_rcu (2,188,101 samples, 0.03%)</title><rect x="855.3" y="341" width="0.3" height="15.0" fill="rgb(227,101,24)" rx="2" ry="2" />
<text  x="858.27" y="351.5" ></text>
</g>
<g >
<title>run_binary_search (7,193,203,754 samples, 99.57%)</title><rect x="15.1" y="421" width="1174.9" height="15.0" fill="rgb(246,193,46)" rx="2" ry="2" />
<text  x="18.13" y="431.5" >run_binary_search</text>
</g>
<g >
<title>task_tick_fair (6,459,193 samples, 0.09%)</title><rect x="853.9" y="245" width="1.0" height="15.0" fill="rgb(217,57,13)" rx="2" ry="2" />
<text  x="856.86" y="255.5" ></text>
</g>
<g >
<title>int* std::__uninitialized_default_n_a&lt;int*, unsigned long, int&gt; (8,752,027 samples, 0.12%)</title><rect x="1188.6" y="373" width="1.4" height="15.0" fill="rgb(239,160,38)" rx="2" ry="2" />
<text  x="1191.57" y="383.5" ></text>
</g>
<g >
<title>tick_sched_do_timer (2,175,124 samples, 0.03%)</title><rect x="1030.4" y="277" width="0.4" height="15.0" fill="rgb(227,104,25)" rx="2" ry="2" />
<text  x="1033.44" y="287.5" ></text>
</g>
<g >
<title>do_vmi_munmap (1,351,003 samples, 0.02%)</title><rect x="10.0" y="197" width="0.2" height="15.0" fill="rgb(253,223,53)" rx="2" ry="2" />
<text  x="13.01" y="207.5" ></text>
</g>
<g >
<title>__libc_start_call_main (7,223,090,225 samples, 99.98%)</title><rect x="10.2" y="453" width="1179.8" height="15.0" fill="rgb(210,26,6)" rx="2" ry="2" />
<text  x="13.25" y="463.5" >__libc_start_call_main</text>
</g>
<g >
<title>do_syscall_64 (1,351,003 samples, 0.02%)</title><rect x="10.0" y="309" width="0.2" height="15.0" fill="rgb(209,20,4)" rx="2" ry="2" />
<text  x="13.01" y="319.5" ></text>
</g>
<g >
<title>int* std::__uninitialized_default_n&lt;int*, unsigned long&gt; (8,752,027 samples, 0.12%)</title><rect x="1188.6" y="357" width="1.4" height="15.0" fill="rgb(209,20,4)" rx="2" ry="2" />
<text  x="1191.57" y="367.5" ></text>
</g>
<g >
<title>_dl_map_object_from_fd (1,351,003 samples, 0.02%)</title><rect x="10.0" y="357" width="0.2" height="15.0" fill="rgb(249,205,49)" rx="2" ry="2" />
<text  x="13.01" y="367.5" ></text>
</g>
<g >
<title>do_mmap (1,351,003 samples, 0.02%)</title><rect x="10.0" y="229" width="0.2" height="15.0" fill="rgb(228,107,25)" rx="2" ry="2" />
<text  x="13.01" y="239.5" ></text>
</g>
<g >
<title>update_process_times (13,009,030 samples, 0.18%)</title><rect x="853.1" y="277" width="2.2" height="15.0" fill="rgb(250,209,50)" rx="2" ry="2" />
<text  x="856.14" y="287.5" ></text>
</g>
<g >
<title>tick_do_update_jiffies64 (2,175,124 samples, 0.03%)</title><rect x="1030.4" y="261" width="0.4" height="15.0" fill="rgb(208,14,3)" rx="2" ry="2" />
<text  x="1033.44" y="271.5" ></text>
</g>
<g >
<title>tick_nohz_highres_handler (15,203,633 samples, 0.21%)</title><rect x="852.8" y="309" width="2.5" height="15.0" fill="rgb(215,50,11)" rx="2" ry="2" />
<text  x="855.79" y="319.5" ></text>
</g>
<g >
<title>__sysvec_apic_timer_interrupt (8,470,090 samples, 0.12%)</title><rect x="1030.1" y="341" width="1.4" height="15.0" fill="rgb(242,173,41)" rx="2" ry="2" />
<text  x="1033.08" y="351.5" ></text>
</g>
<g >
<title>__irq_exit_rcu (2,203,309 samples, 0.03%)</title><rect x="852.4" y="357" width="0.4" height="15.0" fill="rgb(227,101,24)" rx="2" ry="2" />
<text  x="855.43" y="367.5" ></text>
</g>
<g >
<title>tick_sched_handle (13,009,030 samples, 0.18%)</title><rect x="853.1" y="293" width="2.2" height="15.0" fill="rgb(219,68,16)" rx="2" ry="2" />
<text  x="856.14" y="303.5" ></text>
</g>
</g>
</svg>
